# xmcd CD database file
#
# Track frame offsets:
#	150
#	12912
#	26510
#	40112
#	53787
#	67512
#	90882
#	103122
#	115122
#	139630
#	167635
#	184405
#	196145
#	210605
#	232805
#	257862
#	275230
#	288012
#	303737
#	322730
#
# Disc length: 4528 seconds
#
# Revision: 0
# Processed by: cddbd v1.5.1PL2 Copyright (c) Steve Scherf et al.
# Submitted via: CDex 1.51
#
DISCID=0811ae14
DTITLE=B. B. King - Living The Blues - B. B. King
DYEAR=2000
DGENRE=Blues
TTITLE0=B. B. King - Everyday (I Have The Blues)
TTITLE1=B. B. King - Sweet Little Angel
TTITLE2=B. B. King - Rock Me Baby
TTITLE3=B. B. King - Three O'Clock Blues
TTITLE4=B. B. King - You Upset Me Baby
TTITLE5=B. B. King - Don't Answer The Door (Pts. 1 and 2)
TTITLE6=B. B. King - How Blue Can You Get
TTITLE7=B. B. King - Help The Poor
TTITLE8=B. B. King - The Thrill Is Gone
TTITLE9=B. B. King - Sweet Sixteen (Pts. 1 and 2)
TTITLE10=B. B. King - Why I Sing The Blues
TTITLE11=B. B. King - Paying The Cost To Be The Boss
TTITLE12=B. B. King - Ain't Nobody Home
TTITLE13=B. B. King - Chains And Things
TTITLE14=B. B. King - Let The Good Times Roll
TTITLE15=B. B. King - To Know You Is To Love You
TTITLE16=B. B. King - Caldonia
TTITLE17=B. B. King - I Like To Live The Love
TTITLE18=B. B. King - Into The Night
TTITLE19=B. B. King - There Must Be A Better World Somewhere
EXTD=YEAR: 2000
EXTT0=
EXTT1=
EXTT2=
EXTT3=
EXTT4=
EXTT5=
EXTT6=
EXTT7=
EXTT8=
EXTT9=
EXTT10=
EXTT11=
EXTT12=
EXTT13=
EXTT14=
EXTT15=
EXTT16=
EXTT17=
EXTT18=
EXTT19=
PLAYORDER=
